<mxfile host="app.diagrams.net" agent="Mozilla/5.0 (Windows NT 10.0; Win64; x64) AppleWebKit/537.36 (KHTML, like Gecko) Chrome/133.0.0.0 Safari/537.36" version="26.0.16">
  <diagram id="C5RBs43oDa-KdzZeNtuy" name="Page-1">
    <mxGraphModel dx="748" dy="771" grid="1" gridSize="10" guides="1" tooltips="1" connect="1" arrows="1" fold="1" page="1" pageScale="1" pageWidth="827" pageHeight="1169" math="0" shadow="0">
      <root>
        <mxCell id="WIyWlLk6GJQsqaUBKTNV-0" />
        <mxCell id="WIyWlLk6GJQsqaUBKTNV-1" parent="WIyWlLk6GJQsqaUBKTNV-0" />
        <mxCell id="SSWxGTF1WEpYmRGd-3fQ-36" style="edgeStyle=orthogonalEdgeStyle;rounded=0;orthogonalLoop=1;jettySize=auto;html=1;endArrow=none;startFill=0;" edge="1" parent="WIyWlLk6GJQsqaUBKTNV-1" source="SrEARC82v8HUJaM9KFQY-3" target="SSWxGTF1WEpYmRGd-3fQ-0">
          <mxGeometry relative="1" as="geometry" />
        </mxCell>
        <mxCell id="SSWxGTF1WEpYmRGd-3fQ-37" value="0.. *" style="edgeLabel;html=1;align=center;verticalAlign=middle;resizable=0;points=[];fontSize=12;" vertex="1" connectable="0" parent="SSWxGTF1WEpYmRGd-3fQ-36">
          <mxGeometry x="-0.0667" y="2" relative="1" as="geometry">
            <mxPoint x="69" y="-15" as="offset" />
          </mxGeometry>
        </mxCell>
        <mxCell id="SrEARC82v8HUJaM9KFQY-3" value="Transacao" style="swimlane;fontStyle=1;align=center;verticalAlign=top;childLayout=stackLayout;horizontal=1;startSize=26;horizontalStack=0;resizeParent=1;resizeParentMax=0;resizeLast=0;collapsible=1;marginBottom=0;whiteSpace=wrap;html=1;swimlaneFillColor=#FFFFFF;fillColor=#fff2cc;strokeColor=#d6b656;" parent="WIyWlLk6GJQsqaUBKTNV-1" vertex="1">
          <mxGeometry x="530" y="811" width="160" height="134" as="geometry">
            <mxRectangle x="300" y="570" width="100" height="30" as="alternateBounds" />
          </mxGeometry>
        </mxCell>
        <mxCell id="SrEARC82v8HUJaM9KFQY-4" value="- &amp;lt;&amp;lt;pk&amp;gt;&amp;gt; id : Long" style="text;strokeColor=none;fillColor=none;align=left;verticalAlign=top;spacingLeft=4;spacingRight=4;overflow=hidden;rotatable=0;points=[[0,0.5],[1,0.5]];portConstraint=eastwest;whiteSpace=wrap;html=1;" parent="SrEARC82v8HUJaM9KFQY-3" vertex="1">
          <mxGeometry y="26" width="160" height="28" as="geometry" />
        </mxCell>
        <mxCell id="SSWxGTF1WEpYmRGd-3fQ-26" value="- data : Date" style="text;strokeColor=none;fillColor=none;align=left;verticalAlign=top;spacingLeft=4;spacingRight=4;overflow=hidden;rotatable=0;points=[[0,0.5],[1,0.5]];portConstraint=eastwest;whiteSpace=wrap;html=1;" vertex="1" parent="SrEARC82v8HUJaM9KFQY-3">
          <mxGeometry y="54" width="160" height="28" as="geometry" />
        </mxCell>
        <mxCell id="SrEARC82v8HUJaM9KFQY-7" value="- descricao : String" style="text;strokeColor=none;fillColor=none;align=left;verticalAlign=top;spacingLeft=4;spacingRight=4;overflow=hidden;rotatable=0;points=[[0,0.5],[1,0.5]];portConstraint=eastwest;whiteSpace=wrap;html=1;" parent="SrEARC82v8HUJaM9KFQY-3" vertex="1">
          <mxGeometry y="82" width="160" height="26" as="geometry" />
        </mxCell>
        <mxCell id="SrEARC82v8HUJaM9KFQY-8" value="- valor : BigDecimal" style="text;strokeColor=none;fillColor=none;align=left;verticalAlign=top;spacingLeft=4;spacingRight=4;overflow=hidden;rotatable=0;points=[[0,0.5],[1,0.5]];portConstraint=eastwest;whiteSpace=wrap;html=1;" parent="SrEARC82v8HUJaM9KFQY-3" vertex="1">
          <mxGeometry y="108" width="160" height="26" as="geometry" />
        </mxCell>
        <mxCell id="SSWxGTF1WEpYmRGd-3fQ-29" style="edgeStyle=orthogonalEdgeStyle;rounded=0;orthogonalLoop=1;jettySize=auto;html=1;exitX=0.5;exitY=0;exitDx=0;exitDy=0;endArrow=none;endFill=0;startFill=0;" edge="1" parent="WIyWlLk6GJQsqaUBKTNV-1" source="SSWxGTF1WEpYmRGd-3fQ-0" target="SSWxGTF1WEpYmRGd-3fQ-4">
          <mxGeometry relative="1" as="geometry" />
        </mxCell>
        <mxCell id="SSWxGTF1WEpYmRGd-3fQ-30" value="1" style="edgeLabel;html=1;align=center;verticalAlign=middle;resizable=0;points=[];fontSize=12;" vertex="1" connectable="0" parent="SSWxGTF1WEpYmRGd-3fQ-29">
          <mxGeometry x="-0.2581" y="-1" relative="1" as="geometry">
            <mxPoint x="-21" y="-54" as="offset" />
          </mxGeometry>
        </mxCell>
        <mxCell id="SSWxGTF1WEpYmRGd-3fQ-31" value="- usuario" style="edgeLabel;html=1;align=center;verticalAlign=middle;resizable=0;points=[];fontSize=12;" vertex="1" connectable="0" parent="SSWxGTF1WEpYmRGd-3fQ-29">
          <mxGeometry x="0.6935" y="-2" relative="1" as="geometry">
            <mxPoint x="28" y="5" as="offset" />
          </mxGeometry>
        </mxCell>
        <mxCell id="SSWxGTF1WEpYmRGd-3fQ-32" value="0.. *" style="edgeLabel;html=1;align=center;verticalAlign=middle;resizable=0;points=[];fontSize=12;" vertex="1" connectable="0" parent="SSWxGTF1WEpYmRGd-3fQ-29">
          <mxGeometry x="-0.5645" y="-2" relative="1" as="geometry">
            <mxPoint x="-22" y="7" as="offset" />
          </mxGeometry>
        </mxCell>
        <mxCell id="SSWxGTF1WEpYmRGd-3fQ-33" value="- contas" style="edgeLabel;html=1;align=center;verticalAlign=middle;resizable=0;points=[];fontSize=12;" vertex="1" connectable="0" parent="SSWxGTF1WEpYmRGd-3fQ-29">
          <mxGeometry x="-0.3065" y="-2" relative="1" as="geometry">
            <mxPoint x="28" y="23" as="offset" />
          </mxGeometry>
        </mxCell>
        <mxCell id="SSWxGTF1WEpYmRGd-3fQ-0" value="ContaBancaria" style="swimlane;fontStyle=1;childLayout=stackLayout;horizontal=1;startSize=26;horizontalStack=0;resizeParent=1;resizeParentMax=0;resizeLast=0;collapsible=1;marginBottom=0;whiteSpace=wrap;html=1;swimlaneFillColor=#FFFFFF;labelBackgroundColor=none;verticalAlign=top;fillColor=#fff2cc;strokeColor=#d6b656;" vertex="1" parent="WIyWlLk6GJQsqaUBKTNV-1">
          <mxGeometry x="160" y="800" width="180" height="156" as="geometry" />
        </mxCell>
        <mxCell id="SSWxGTF1WEpYmRGd-3fQ-24" value="- &amp;lt;&amp;lt;pk&amp;gt;&amp;gt; id : Long" style="text;strokeColor=none;fillColor=none;align=left;verticalAlign=top;spacingLeft=4;spacingRight=4;overflow=hidden;rotatable=0;points=[[0,0.5],[1,0.5]];portConstraint=eastwest;whiteSpace=wrap;html=1;" vertex="1" parent="SSWxGTF1WEpYmRGd-3fQ-0">
          <mxGeometry y="26" width="180" height="26" as="geometry" />
        </mxCell>
        <mxCell id="SSWxGTF1WEpYmRGd-3fQ-25" value="- nomeInstituicao : String" style="text;strokeColor=none;fillColor=none;align=left;verticalAlign=top;spacingLeft=4;spacingRight=4;overflow=hidden;rotatable=0;points=[[0,0.5],[1,0.5]];portConstraint=eastwest;whiteSpace=wrap;html=1;" vertex="1" parent="SSWxGTF1WEpYmRGd-3fQ-0">
          <mxGeometry y="52" width="180" height="26" as="geometry" />
        </mxCell>
        <mxCell id="SSWxGTF1WEpYmRGd-3fQ-1" value="- agencia : String" style="text;strokeColor=none;fillColor=none;align=left;verticalAlign=top;spacingLeft=4;spacingRight=4;overflow=hidden;rotatable=0;points=[[0,0.5],[1,0.5]];portConstraint=eastwest;whiteSpace=wrap;html=1;" vertex="1" parent="SSWxGTF1WEpYmRGd-3fQ-0">
          <mxGeometry y="78" width="180" height="26" as="geometry" />
        </mxCell>
        <mxCell id="SSWxGTF1WEpYmRGd-3fQ-2" value="- numero : String" style="text;strokeColor=none;fillColor=none;align=left;verticalAlign=top;spacingLeft=4;spacingRight=4;overflow=hidden;rotatable=0;points=[[0,0.5],[1,0.5]];portConstraint=eastwest;whiteSpace=wrap;html=1;" vertex="1" parent="SSWxGTF1WEpYmRGd-3fQ-0">
          <mxGeometry y="104" width="180" height="26" as="geometry" />
        </mxCell>
        <mxCell id="SSWxGTF1WEpYmRGd-3fQ-3" value="- digito : String" style="text;strokeColor=none;fillColor=none;align=left;verticalAlign=top;spacingLeft=4;spacingRight=4;overflow=hidden;rotatable=0;points=[[0,0.5],[1,0.5]];portConstraint=eastwest;whiteSpace=wrap;html=1;" vertex="1" parent="SSWxGTF1WEpYmRGd-3fQ-0">
          <mxGeometry y="130" width="180" height="26" as="geometry" />
        </mxCell>
        <mxCell id="SSWxGTF1WEpYmRGd-3fQ-28" style="edgeStyle=orthogonalEdgeStyle;rounded=0;orthogonalLoop=1;jettySize=auto;html=1;exitX=1;exitY=0.5;exitDx=0;exitDy=0;" edge="1" parent="SSWxGTF1WEpYmRGd-3fQ-0" source="SSWxGTF1WEpYmRGd-3fQ-25" target="SSWxGTF1WEpYmRGd-3fQ-25">
          <mxGeometry relative="1" as="geometry" />
        </mxCell>
        <mxCell id="SSWxGTF1WEpYmRGd-3fQ-4" value="User" style="swimlane;fontStyle=1;childLayout=stackLayout;horizontal=1;startSize=26;horizontalStack=0;resizeParent=1;resizeParentMax=0;resizeLast=0;collapsible=1;marginBottom=0;whiteSpace=wrap;html=1;align=center;verticalAlign=top;swimlaneFillColor=#FFFFFF;fillColor=#fff2cc;strokeColor=#d6b656;" vertex="1" parent="WIyWlLk6GJQsqaUBKTNV-1">
          <mxGeometry x="165" y="520" width="170" height="156" as="geometry" />
        </mxCell>
        <mxCell id="SSWxGTF1WEpYmRGd-3fQ-5" value="- &amp;lt;&amp;lt;pk&amp;gt;&amp;gt; id : Long" style="text;strokeColor=none;fillColor=none;align=left;verticalAlign=top;spacingLeft=4;spacingRight=4;overflow=hidden;rotatable=0;points=[[0,0.5],[1,0.5]];portConstraint=eastwest;whiteSpace=wrap;html=1;" vertex="1" parent="SSWxGTF1WEpYmRGd-3fQ-4">
          <mxGeometry y="26" width="170" height="26" as="geometry" />
        </mxCell>
        <mxCell id="SSWxGTF1WEpYmRGd-3fQ-6" value="- username: String" style="text;strokeColor=none;fillColor=none;align=left;verticalAlign=top;spacingLeft=4;spacingRight=4;overflow=hidden;rotatable=0;points=[[0,0.5],[1,0.5]];portConstraint=eastwest;whiteSpace=wrap;html=1;" vertex="1" parent="SSWxGTF1WEpYmRGd-3fQ-4">
          <mxGeometry y="52" width="170" height="26" as="geometry" />
        </mxCell>
        <mxCell id="SSWxGTF1WEpYmRGd-3fQ-7" value="- name : String" style="text;strokeColor=none;fillColor=none;align=left;verticalAlign=top;spacingLeft=4;spacingRight=4;overflow=hidden;rotatable=0;points=[[0,0.5],[1,0.5]];portConstraint=eastwest;whiteSpace=wrap;html=1;" vertex="1" parent="SSWxGTF1WEpYmRGd-3fQ-4">
          <mxGeometry y="78" width="170" height="26" as="geometry" />
        </mxCell>
        <mxCell id="SSWxGTF1WEpYmRGd-3fQ-13" value="- hashedPassword : String" style="text;strokeColor=none;fillColor=none;align=left;verticalAlign=top;spacingLeft=4;spacingRight=4;overflow=hidden;rotatable=0;points=[[0,0.5],[1,0.5]];portConstraint=eastwest;whiteSpace=wrap;html=1;" vertex="1" parent="SSWxGTF1WEpYmRGd-3fQ-4">
          <mxGeometry y="104" width="170" height="26" as="geometry" />
        </mxCell>
        <mxCell id="SSWxGTF1WEpYmRGd-3fQ-8" value="- profilePicture : byte[]" style="text;strokeColor=none;fillColor=none;align=left;verticalAlign=top;spacingLeft=4;spacingRight=4;overflow=hidden;rotatable=0;points=[[0,0.5],[1,0.5]];portConstraint=eastwest;whiteSpace=wrap;html=1;" vertex="1" parent="SSWxGTF1WEpYmRGd-3fQ-4">
          <mxGeometry y="130" width="170" height="26" as="geometry" />
        </mxCell>
        <mxCell id="SSWxGTF1WEpYmRGd-3fQ-15" value="&amp;lt;&amp;lt;Enum&amp;gt;&amp;gt;&lt;br&gt;Role" style="swimlane;fontStyle=1;childLayout=stackLayout;horizontal=1;startSize=40;horizontalStack=0;resizeParent=1;resizeParentMax=0;resizeLast=0;collapsible=1;marginBottom=0;whiteSpace=wrap;html=1;verticalAlign=top;fillColor=#dae8fc;strokeColor=#6c8ebf;swimlaneFillColor=#FFFFFF;" vertex="1" parent="WIyWlLk6GJQsqaUBKTNV-1">
          <mxGeometry x="490" y="550" width="140" height="92" as="geometry" />
        </mxCell>
        <mxCell id="SSWxGTF1WEpYmRGd-3fQ-16" value="- USER : int" style="text;strokeColor=none;fillColor=none;align=left;verticalAlign=top;spacingLeft=4;spacingRight=4;overflow=hidden;rotatable=0;points=[[0,0.5],[1,0.5]];portConstraint=eastwest;whiteSpace=wrap;html=1;" vertex="1" parent="SSWxGTF1WEpYmRGd-3fQ-15">
          <mxGeometry y="40" width="140" height="26" as="geometry" />
        </mxCell>
        <mxCell id="SSWxGTF1WEpYmRGd-3fQ-17" value="- ADMIN : int" style="text;strokeColor=none;fillColor=none;align=left;verticalAlign=top;spacingLeft=4;spacingRight=4;overflow=hidden;rotatable=0;points=[[0,0.5],[1,0.5]];portConstraint=eastwest;whiteSpace=wrap;html=1;" vertex="1" parent="SSWxGTF1WEpYmRGd-3fQ-15">
          <mxGeometry y="66" width="140" height="26" as="geometry" />
        </mxCell>
        <mxCell id="SSWxGTF1WEpYmRGd-3fQ-20" style="edgeStyle=orthogonalEdgeStyle;rounded=0;orthogonalLoop=1;jettySize=auto;html=1;exitX=1;exitY=0.5;exitDx=0;exitDy=0;entryX=0;entryY=0.808;entryDx=0;entryDy=0;entryPerimeter=0;curved=0;fillColor=none;endArrow=open;endFill=0;" edge="1" parent="WIyWlLk6GJQsqaUBKTNV-1" source="SSWxGTF1WEpYmRGd-3fQ-7" target="SSWxGTF1WEpYmRGd-3fQ-16">
          <mxGeometry relative="1" as="geometry" />
        </mxCell>
        <mxCell id="SSWxGTF1WEpYmRGd-3fQ-21" value="1.. *" style="edgeLabel;html=1;align=left;verticalAlign=middle;resizable=0;points=[];fontSize=12;" vertex="1" connectable="0" parent="SSWxGTF1WEpYmRGd-3fQ-20">
          <mxGeometry x="-0.4933" relative="1" as="geometry">
            <mxPoint x="82" y="-15" as="offset" />
          </mxGeometry>
        </mxCell>
        <mxCell id="SSWxGTF1WEpYmRGd-3fQ-23" value="- roles" style="edgeLabel;html=1;align=center;verticalAlign=middle;resizable=0;points=[];fontSize=12;" vertex="1" connectable="0" parent="SSWxGTF1WEpYmRGd-3fQ-20">
          <mxGeometry x="-0.4267" y="2" relative="1" as="geometry">
            <mxPoint x="81" y="21" as="offset" />
          </mxGeometry>
        </mxCell>
        <mxCell id="SSWxGTF1WEpYmRGd-3fQ-38" value="transacoes" style="edgeLabel;html=1;align=center;verticalAlign=middle;resizable=0;points=[];fontSize=12;" vertex="1" connectable="0" parent="WIyWlLk6GJQsqaUBKTNV-1">
          <mxGeometry x="500" y="860" as="geometry">
            <mxPoint x="-8" y="32" as="offset" />
          </mxGeometry>
        </mxCell>
        <mxCell id="SSWxGTF1WEpYmRGd-3fQ-39" value="1" style="edgeLabel;html=1;align=center;verticalAlign=middle;resizable=0;points=[];fontSize=12;" vertex="1" connectable="0" parent="WIyWlLk6GJQsqaUBKTNV-1">
          <mxGeometry x="340" y="860" as="geometry">
            <mxPoint x="21" y="7" as="offset" />
          </mxGeometry>
        </mxCell>
        <mxCell id="SSWxGTF1WEpYmRGd-3fQ-41" value="contaBancaria" style="edgeLabel;html=1;align=center;verticalAlign=middle;resizable=0;points=[];fontSize=12;" vertex="1" connectable="0" parent="WIyWlLk6GJQsqaUBKTNV-1">
          <mxGeometry x="390" y="860" as="geometry">
            <mxPoint x="-8" y="32" as="offset" />
          </mxGeometry>
        </mxCell>
      </root>
    </mxGraphModel>
  </diagram>
</mxfile>
